<svg width="31" height="31" viewBox="0 0 31 31" fill="none" xmlns="http://www.w3.org/2000/svg">
<path d="M14.3016 28.736C14.6332 29.0298 15.0587 29.1915 15.5 29.1915C15.9411 29.1915 16.3668 29.0298 16.6982 28.7364C17.9533 27.6261 19.1626 26.5834 20.2298 25.6637L20.2302 25.6633C23.3527 22.9714 26.0492 20.6467 27.9256 18.3561C30.0232 15.7959 31 13.3681 31 10.716C31 8.13922 30.1268 5.76198 28.541 4.02188C26.9363 2.2612 24.7341 1.2915 22.3401 1.2915C20.5507 1.2915 18.9119 1.8638 17.4694 2.99237C16.7412 3.56203 16.0816 4.25922 15.5 5.07245C14.9187 4.25922 14.2588 3.56203 13.5308 2.99237C12.0883 1.8638 10.4495 1.2915 8.6601 1.2915C6.26589 1.2915 4.06397 2.2612 2.45924 4.02188C0.873436 5.76198 0 8.13922 0 10.716C0 13.3681 0.977028 15.7959 3.07465 18.3564C4.95113 20.6468 7.64806 22.9718 10.7712 25.6642L10.7766 25.669C11.8419 26.5872 13.0493 27.6282 14.3016 28.736Z" fill="#E3E6ED"/>
</svg>
